<svg viewBox="0 0 375 420" version="1.1" xmlns="http://www.w3.org/2000/svg" desc="Created on https://convert2svg.com/" ><path fill="rgb(255,215,0)" stroke="rgb(255,215,0)" stroke-width="1" opacity="0.6745098039215687" d="M 179.5 37 L 232.5 38 L 233.5 39 L 246.5 40 L 261.5 44 Q 291.7 54.8 310 77.5 L 321 95.5 L 323 101.5 L 325 120 L 240.5 120 L 236 117.5 Q 234.5 97 220.5 89 L 210.5 83 L 204.5 81 L 198.5 81 Q 173.5 90 159 109.5 Q 145.1 128.1 139 154.5 L 137 165.5 L 137 179.5 L 136 180.5 L 136 211.5 L 137 212.5 L 137 227.5 L 140 244.5 L 148 268.5 Q 159.7 295.3 181.5 312 L 206.5 325 L 215.5 327 L 224.5 327 L 227 328 Q 225.7 324.7 230.5 326 L 238 324 L 238 257.5 L 237 256.5 L 237 241.5 L 228.5 231 L 216.5 227 L 197.5 226 L 190 221.5 Q 185.4 215.7 187 203.5 L 188 198.5 L 191.5 195 Q 198.6 192.6 209.5 194 L 210.5 193 L 278.5 193 L 279.5 194 L 312.5 194 Q 319.1 194.9 322 199.5 L 323 212.5 L 324 213.5 L 324 342.5 L 301.5 356 L 287.5 361 L 266.5 366 L 261.5 366 L 255.5 368 L 247.5 368 L 246.5 369 L 228.5 369 L 227.5 370 L 180.5 370 L 179.5 369 L 172.5 369 L 156.5 366 L 135.5 359 Q 108.8 347.2 91 326.5 Q 66.6 300.9 55 262.5 L 49 231.5 L 49 220.5 L 48 219.5 L 48 186.5 L 49 185.5 L 49 173.5 L 50 172.5 L 50 165.5 L 53 148.5 L 62 119.5 L 73 97.5 L 95.5 69 Q 111.6 54.1 134.5 46 L 159.5 39 L 169.5 39 L 179.5 37 Z M 184 39 L 178 41 L 168 41 L 151 44 L 134 49 L 116 58 L 101 69 Q 79 89 66 118 L 61 132 L 61 136 L 58 140 L 58 145 L 55 152 L 54 164 L 53 165 L 54 170 L 52 173 L 52 181 L 51 182 L 51 222 L 52 223 L 52 232 L 53 233 L 54 246 L 59 266 L 73 298 Q 81 312 93 324 L 115 344 L 134 355 L 165 365 L 178 366 L 179 367 L 191 367 L 192 368 L 197 368 L 185 365 L 164 358 Q 146 350 133 338 Q 108 317 93 286 L 86 268 L 82 253 L 79 236 L 79 229 L 78 228 L 78 216 L 77 215 L 78 177 L 79 176 L 79 168 L 83 146 L 88 129 L 97 108 L 114 82 Q 129 63 151 52 L 171 44 L 194 40 L 184 39 Z M 213 41 L 212 42 L 201 42 L 200 43 L 186 44 L 161 51 L 135 66 L 127 74 Q 128 76 125 75 Q 116 83 110 94 Q 111 97 109 96 Q 95 115 88 140 L 83 165 L 82 192 L 81 193 L 82 230 L 83 231 L 83 240 L 85 247 L 85 252 L 88 264 L 99 291 L 117 318 L 130 330 L 132 330 L 131 332 L 141 340 L 145 341 L 144 343 L 163 354 L 184 361 L 187 360 L 193 361 L 190 363 L 202 365 L 215 365 L 216 366 L 249 365 L 268 361 L 273 361 L 290 356 L 297 352 L 300 352 L 318 342 L 319 341 L 319 269 L 320 268 L 320 234 L 319 233 L 319 212 L 320 211 Q 320 204 317 202 L 313 198 L 309 197 L 226 197 Q 221 200 219 207 L 219 212 L 221 218 L 227 222 L 250 224 L 261 228 Q 268 233 270 245 L 270 256 L 271 257 L 271 325 L 267 328 L 260 330 L 240 331 L 239 332 L 216 331 L 201 327 Q 182 320 170 307 L 155 291 L 141 264 L 135 241 L 134 229 L 133 228 L 133 219 L 132 218 L 132 178 L 133 177 L 133 167 L 134 166 L 135 154 L 138 142 Q 146 115 164 99 L 181 84 Q 192 78 207 75 L 226 75 L 239 78 L 242 80 L 248 81 L 247 83 L 253 86 L 265 101 L 268 115 L 270 116 L 318 116 L 320 115 L 320 108 L 318 100 Q 313 88 305 79 Q 291 62 272 52 L 246 44 L 234 43 L 233 42 L 224 42 L 223 41 L 213 41 Z M 208 78 L 208 79 L 223 86 L 229 91 Q 236 100 239 115 L 240 118 L 266 118 Q 265 105 258 97 Q 250 86 237 81 L 222 78 L 208 78 Z M 207 195 L 206 196 L 196 196 L 191 201 Q 192 205 189 206 L 189 212 L 192 220 L 198 223 Q 202 224 204 222 Q 208 221 209 224 L 224 226 L 233 230 L 238 237 L 240 247 L 240 326 L 235 327 L 235 328 L 250 328 L 268 325 L 267 247 L 264 237 Q 260 230 252 228 L 242 226 L 227 225 L 222 223 L 218 220 L 216 213 L 217 201 L 220 197 L 220 195 L 207 195 Z M 187 361 L 187 362 L 189 362 L 187 361 Z " /><path fill="rgb(255,215,0)" stroke="rgb(255,215,0)" stroke-width="1" opacity="0.6745098039215687" d="M 233.5 220 L 239 220.5 L 235.5 222 L 233.5 220 Z " /><path fill="rgb(255,215,0)" stroke="rgb(255,215,0)" stroke-width="1" opacity="0.6745098039215687" d="M 86 243 Q 89.7 241.8 88 247 Q 84.3 248.2 86 243 Z " /><path fill="rgb(255,215,0)" stroke="rgb(255,215,0)" stroke-width="1" opacity="0.6745098039215687" d="M 183 287 L 186 288.5 Q 187.1 291.8 184.5 291 L 183 287 Z " /><path fill="rgb(0,0,0)" stroke="rgb(0,0,0)" stroke-width="1" opacity="0" d="M 0 0 L 375 0 L 375 420 L 0 420 L 0 0 Z M 180 37 L 170 39 L 160 39 L 135 46 Q 112 54 96 69 L 73 98 L 62 120 L 53 149 L 50 166 L 50 173 L 49 174 L 49 186 L 48 187 L 48 220 L 49 221 L 49 232 L 55 263 Q 67 301 91 327 Q 109 347 136 359 L 157 366 L 173 369 L 180 369 L 181 370 L 228 370 L 229 369 L 247 369 L 248 368 L 256 368 L 262 366 L 267 366 L 288 361 L 302 356 L 324 343 L 324 214 L 323 213 L 322 200 Q 319 195 313 194 L 280 194 L 279 193 L 211 193 L 210 194 Q 199 193 192 195 L 188 199 L 187 204 Q 185 216 190 222 L 198 226 L 217 227 L 229 231 L 237 242 L 237 257 L 238 258 L 238 324 L 231 326 Q 226 325 227 328 L 225 327 L 216 327 L 207 325 L 182 312 Q 160 295 148 269 L 140 245 L 137 228 L 137 213 L 136 212 L 136 181 L 137 180 L 137 166 L 139 155 Q 145 128 159 110 Q 174 90 199 81 L 205 81 L 211 83 L 221 89 Q 234 97 236 118 L 241 120 L 325 120 L 323 102 L 321 96 L 310 78 Q 292 55 262 44 L 247 40 L 234 39 L 233 38 L 180 37 Z " /><path fill="rgb(0,0,0)" stroke="rgb(0,0,0)" stroke-width="1" opacity="0" d="M 183.5 39 L 194 39.5 L 170.5 44 L 150.5 52 Q 128.8 63.3 114 81.5 L 97 107.5 L 88 128.5 L 83 145.5 L 79 167.5 L 79 175.5 L 78 176.5 L 77 214.5 L 78 215.5 L 78 227.5 L 79 228.5 L 79 235.5 L 82 252.5 L 86 267.5 L 93 285.5 Q 107.8 316.7 132.5 338 Q 145.9 350.1 163.5 358 L 184.5 365 L 197 367.5 L 191.5 368 L 190.5 367 L 178.5 367 L 177.5 366 L 164.5 365 L 133.5 355 L 114.5 344 L 93 323.5 Q 81.5 312 73 297.5 L 59 265.5 L 54 245.5 L 53 232.5 L 52 231.5 L 52 222.5 L 51 221.5 L 51 181.5 L 52 180.5 L 52 172.5 L 54 169.5 L 53 164.5 L 54 163.5 L 55 151.5 L 58 144.5 L 58 139.5 L 61 135.5 L 61 131.5 L 66 117.5 Q 78.7 88.7 100.5 69 L 115.5 58 L 133.5 49 L 150.5 44 L 167.5 41 L 177.5 41 L 183.5 39 Z M 86 243 Q 84 248 88 247 Q 90 242 86 243 Z M 183 287 L 185 291 Q 187 292 186 289 L 183 287 Z " /><path fill="rgb(0,0,0)" stroke="rgb(0,0,0)" stroke-width="1" opacity="0" d="M 212.5 41 L 222.5 41 L 223.5 42 L 232.5 42 L 233.5 43 L 245.5 44 L 271.5 52 Q 291.3 62.2 305 78.5 Q 313 87.5 318 99.5 L 320 107.5 L 320 115 L 317.5 116 L 269.5 116 L 268 114.5 L 265 100.5 L 252.5 86 L 247 82.5 L 248 80.5 L 241.5 80 L 238.5 78 L 225.5 75 L 206.5 75 Q 191.7 77.7 180.5 84 L 164 98.5 Q 146.3 115.3 138 141.5 L 135 153.5 L 134 165.5 L 133 166.5 L 133 176.5 L 132 177.5 L 132 217.5 L 133 218.5 L 133 227.5 L 134 228.5 L 135 240.5 L 141 263.5 L 155 290.5 L 169.5 307 Q 182.2 319.8 200.5 327 L 215.5 331 L 238.5 332 L 239.5 331 L 259.5 330 L 266.5 328 L 271 324.5 L 271 256.5 L 270 255.5 L 270 244.5 Q 268.3 233.2 260.5 228 L 249.5 224 L 226.5 222 L 221 217.5 L 219 211.5 L 219 206.5 Q 220.5 200 225.5 197 L 308.5 197 L 312.5 198 L 317 201.5 Q 320 204.5 320 210.5 L 319 211.5 L 319 232.5 L 320 233.5 L 320 267.5 L 319 268.5 L 319 340.5 L 317.5 342 L 299.5 352 L 296.5 352 L 289.5 356 L 272.5 361 L 267.5 361 L 248.5 365 L 215.5 366 L 214.5 365 L 201.5 365 L 190 362.5 L 193 360.5 L 186.5 360 L 186.5 361 L 189 361.5 L 186.5 362 L 162.5 354 L 144 343 L 145 340.5 L 140.5 340 L 131 331.5 L 131.5 330 L 129.5 330 L 117 317.5 L 99 290.5 L 88 263.5 L 85 251.5 L 85 246.5 L 83 239.5 L 83 230.5 L 82 229.5 L 81 192.5 L 82 191.5 L 83 164.5 L 88 139.5 Q 95.1 114.6 108.5 96 Q 111.1 96.8 110 93.5 Q 115.8 82.8 124.5 75 Q 127.8 76.1 127 73.5 L 134.5 66 L 160.5 51 L 185.5 44 L 199.5 43 L 200.5 42 L 211.5 42 L 212.5 41 Z " /><path fill="rgb(0,0,0)" stroke="rgb(0,0,0)" stroke-width="1" opacity="0" d="M 207.5 78 L 221.5 78 L 236.5 81 Q 250 86 258 96.5 Q 264.5 105.2 266 118 L 239.5 118 L 239 114.5 Q 236 100.3 229 91 L 222.5 86 L 207.5 79 L 207.5 78 Z " /><path fill="rgb(0,0,0)" stroke="rgb(0,0,0)" stroke-width="1" opacity="0" d="M 206.5 195 L 219.5 195 L 220 196.5 L 217 200.5 L 216 212.5 L 218 219.5 L 221.5 223 L 226.5 225 L 241.5 226 L 251.5 228 Q 259.9 230.2 264 236.5 L 267 246.5 L 268 325 L 249.5 328 L 234.5 328 L 234.5 327 L 240 326 L 240 246.5 L 238 236.5 L 232.5 230 L 223.5 226 L 208.5 224 Q 207.8 221.3 203.5 222 Q 202.3 224.2 197.5 223 L 192 220 L 189 211.5 L 189 205.5 Q 191.7 204.8 191 200.5 L 195.5 196 L 205.5 196 L 206.5 195 Z M 234 220 L 236 222 L 239 221 L 234 220 Z " /></svg>